<?xml version="1.0" encoding="utf-8"?>
<!-- Generator: Adobe Illustrator 19.0.1, SVG Export Plug-In . SVG Version: 6.00 Build 0)  -->
<svg version="1.1" id="notepad_1_" xmlns="http://www.w3.org/2000/svg" xmlns:xlink="http://www.w3.org/1999/xlink" x="0px" y="0px"
	 viewBox="-235 162 128 128" style="enable-background:new -235 162 128 128;" xml:space="preserve">
<style type="text/css">
	.st0{display:none;}
	.st1{display:inline;}
	.st2{fill:#161616;}
	.st3{display:inline;fill:#161616;}
	.st4{clip-path:url(#SVGID_2_);fill:#14162D;}
	.st5{clip-path:url(#SVGID_4_);fill:#14162D;}
	.st6{clip-path:url(#SVGID_6_);fill:#14162C;}
	.st7{clip-path:url(#SVGID_8_);fill:#13152B;}
	.st8{clip-path:url(#SVGID_10_);fill:#13152A;}
	.st9{clip-path:url(#SVGID_12_);fill:#131529;}
	.st10{clip-path:url(#SVGID_14_);fill:#131428;}
	.st11{clip-path:url(#SVGID_16_);fill:#121427;}
	.st12{clip-path:url(#SVGID_18_);fill:#121426;}
	.st13{clip-path:url(#SVGID_20_);fill:#121325;}
	.st14{clip-path:url(#SVGID_22_);fill:#111324;}
	.st15{clip-path:url(#SVGID_24_);fill:#111223;}
	.st16{clip-path:url(#SVGID_26_);fill:#111222;}
	.st17{clip-path:url(#SVGID_28_);fill:#101221;}
	.st18{clip-path:url(#SVGID_30_);fill:#101120;}
	.st19{clip-path:url(#SVGID_32_);fill:#10111F;}
	.st20{clip-path:url(#SVGID_34_);fill:#10111E;}
	.st21{clip-path:url(#SVGID_36_);fill:#0F101D;}
	.st22{clip-path:url(#SVGID_38_);fill:#0F101C;}
	.st23{clip-path:url(#SVGID_40_);fill:#0F101A;}
	.st24{clip-path:url(#SVGID_42_);fill:#0E0F19;}
	.st25{clip-path:url(#SVGID_44_);fill:#0E0F18;}
	.st26{clip-path:url(#SVGID_46_);fill:#0E0F17;}
	.st27{clip-path:url(#SVGID_48_);fill:#0E0E16;}
	.st28{clip-path:url(#SVGID_50_);fill:#0D0E15;}
	.st29{clip-path:url(#SVGID_52_);fill:#0D0E14;}
	.st30{clip-path:url(#SVGID_54_);fill:#0D0D13;}
	.st31{clip-path:url(#SVGID_56_);fill:#0C0D12;}
	.st32{clip-path:url(#SVGID_58_);fill:#0C0C11;}
	.st33{clip-path:url(#SVGID_60_);fill:#0C0C10;}
	.st34{clip-path:url(#SVGID_62_);fill:#0B0C0F;}
	.st35{clip-path:url(#SVGID_64_);fill:#0B0B0E;}
	.st36{clip-path:url(#SVGID_66_);fill:#0B0B0D;}
	.st37{clip-path:url(#SVGID_68_);fill:#0B0B0C;}
	.st38{clip-path:url(#SVGID_70_);fill:#0A0A0B;}
	.st39{clip-path:url(#SVGID_72_);fill:#0A0A0A;}
	.st40{clip-path:url(#SVGID_74_);fill:#0A0A0A;}
	.st41{fill:#828282;}
	.st42{fill:#383850;}
	.st43{fill:#191919;}
	.st44{fill:#070707;}
</style>
<g id="check_x5F_notepad_1_" class="st0">
	<g id="Base_33_" class="st1">
		<path class="st2" d="M-47.9,117.6h-165.7c-2.7,0-4.9,2.2-4.9,4.9v207.1c0,2.7,2.2,4.9,4.9,4.9h165.7c2.7,0,4.9-2.2,4.9-4.9V122.4
			C-43,119.8-45.2,117.6-47.9,117.6z M-179.4,127.3h99.9v17.1h-99.9V127.3z M-57.6,322.2h-146.2v-173h146.2V322.2z"/>
	</g>
	<g id="writing_1_" class="st1">
		<g id="wrting_xA0_Image_1_">
		</g>
	</g>
	<g id="verticalline_1_" class="st1">
		<g id="vertical_x5F_line">
			<rect x="-167.3" y="149.3" class="st2" width="2.4" height="173"/>
		</g>
		<g id="vertical_x5F_line_1_">
			<rect x="-162.4" y="149.3" class="st2" width="2.4" height="173"/>
		</g>
	</g>
	<g id="ticker_5_" class="st1">
		<g id="ticker_10_">
			<polygon class="st2" points="-189.2,210.2 -196.5,202.9 -191.6,219.9 -172.1,198 			"/>
		</g>
		<g id="ticker_8_">
			<polygon class="st2" points="-189.2,251.6 -196.5,244.3 -191.6,261.3 -172.1,239.4 			"/>
		</g>
		<g id="ticker_6_">
			<polygon class="st2" points="-189.2,288.1 -196.5,280.8 -191.6,297.9 -172.1,275.9 			"/>
		</g>
	</g>
	<g id="lines_6_" class="st1">
		<g id="lines">
			<path class="st2" d="M-203.8,188.2v2.4h146.2v-2.4H-203.8z M-203.8,229.7h146.2v-2.4h-146.2V229.7z M-203.8,268.6h146.2v-2.4
				h-146.2V268.6z M-203.8,302.7h146.2v-2.4h-146.2V302.7z"/>
		</g>
	</g>
	<g id="cliper_1_" class="st1">
		<g id="clip_5_">
			<path class="st2" d="M-79.5,132.2v7.3h4.9v17.1h-109.7v-17.1h4.9v-7.3h-12.2c0,0,0,8.5,0,17.1v11.4c0,3.4,2.1,5.7,4.9,5.7h114.5
				c2.7,0,4.9-2.4,4.9-5.9v-11.2c0-8.5,0-17.1,0-17.1H-79.5z"/>
		</g>
	</g>
	<path class="st3" d="M-296.3,278h27.2c-2.9,25.8-7.9,42.8-13.6,42.8C-288.4,320.8-293.4,303.7-296.3,278z"/>
	<path class="st3" d="M-262.1,204.2c0,0.2-1.4,11.4-1.4,11.4s-3.9-7-1.4-12.8c2-4.7,3.9-10.5,4.3-17.1c0.6-13.6-8.6-16.2-8.5-15.6
		c2.1,15,2.7,28.7,2.8,48.4H-299c0.5-50,7.6-89.6,16.3-89.6c4.5,0,8.6,10.9,11.6,28.6c0.1,0.5,13.7,13,14.7,26.8
		C-255.8,193.9-262.2,203.8-262.1,204.2z"/>
	<g class="st1">
		<g>
			<g>
				<defs>
					<path id="SVGID_1_" d="M-277.1,315c-1.6,3.8-2.6,5.1-4.8,5.8c-2.7,0.8-5.2-1.8-6.4-5.8H-277.1z"/>
				</defs>
				<clipPath id="SVGID_2_">
					<use xlink:href="#SVGID_1_"  style="overflow:visible;"/>
				</clipPath>
				<path class="st4" d="M-288.3,315v6.6V315z"/>
			</g>
			<g>
				<defs>
					<path id="SVGID_3_" d="M-277.1,315c-1.6,3.8-2.6,5.1-4.8,5.8c-2.7,0.8-5.2-1.8-6.4-5.8H-277.1z"/>
				</defs>
				<clipPath id="SVGID_4_">
					<use xlink:href="#SVGID_3_"  style="overflow:visible;"/>
				</clipPath>
				<rect x="-288.3" y="315" class="st5" width="0.3" height="6.6"/>
			</g>
			<g>
				<defs>
					<path id="SVGID_5_" d="M-277.1,315c-1.6,3.8-2.6,5.1-4.8,5.8c-2.7,0.8-5.2-1.8-6.4-5.8H-277.1z"/>
				</defs>
				<clipPath id="SVGID_6_">
					<use xlink:href="#SVGID_5_"  style="overflow:visible;"/>
				</clipPath>
				<rect x="-288" y="315" class="st6" width="0.3" height="6.6"/>
			</g>
			<g>
				<defs>
					<path id="SVGID_7_" d="M-277.1,315c-1.6,3.8-2.6,5.1-4.8,5.8c-2.7,0.8-5.2-1.8-6.4-5.8H-277.1z"/>
				</defs>
				<clipPath id="SVGID_8_">
					<use xlink:href="#SVGID_7_"  style="overflow:visible;"/>
				</clipPath>
				<rect x="-287.7" y="315" class="st7" width="0.3" height="6.6"/>
			</g>
			<g>
				<defs>
					<path id="SVGID_9_" d="M-277.1,315c-1.6,3.8-2.6,5.1-4.8,5.8c-2.7,0.8-5.2-1.8-6.4-5.8H-277.1z"/>
				</defs>
				<clipPath id="SVGID_10_">
					<use xlink:href="#SVGID_9_"  style="overflow:visible;"/>
				</clipPath>
				<rect x="-287.3" y="315" class="st8" width="0.3" height="6.6"/>
			</g>
			<g>
				<defs>
					<path id="SVGID_11_" d="M-277.1,315c-1.6,3.8-2.6,5.1-4.8,5.8c-2.7,0.8-5.2-1.8-6.4-5.8H-277.1z"/>
				</defs>
				<clipPath id="SVGID_12_">
					<use xlink:href="#SVGID_11_"  style="overflow:visible;"/>
				</clipPath>
				<rect x="-287" y="315" class="st9" width="0.3" height="6.6"/>
			</g>
			<g>
				<defs>
					<path id="SVGID_13_" d="M-277.1,315c-1.6,3.8-2.6,5.1-4.8,5.8c-2.7,0.8-5.2-1.8-6.4-5.8H-277.1z"/>
				</defs>
				<clipPath id="SVGID_14_">
					<use xlink:href="#SVGID_13_"  style="overflow:visible;"/>
				</clipPath>
				<rect x="-286.7" y="315" class="st10" width="0.3" height="6.6"/>
			</g>
			<g>
				<defs>
					<path id="SVGID_15_" d="M-277.1,315c-1.6,3.8-2.6,5.1-4.8,5.8c-2.7,0.8-5.2-1.8-6.4-5.8H-277.1z"/>
				</defs>
				<clipPath id="SVGID_16_">
					<use xlink:href="#SVGID_15_"  style="overflow:visible;"/>
				</clipPath>
				<rect x="-286.4" y="315" class="st11" width="0.3" height="6.6"/>
			</g>
			<g>
				<defs>
					<path id="SVGID_17_" d="M-277.1,315c-1.6,3.8-2.6,5.1-4.8,5.8c-2.7,0.8-5.2-1.8-6.4-5.8H-277.1z"/>
				</defs>
				<clipPath id="SVGID_18_">
					<use xlink:href="#SVGID_17_"  style="overflow:visible;"/>
				</clipPath>
				<rect x="-286.1" y="315" class="st12" width="0.3" height="6.6"/>
			</g>
			<g>
				<defs>
					<path id="SVGID_19_" d="M-277.1,315c-1.6,3.8-2.6,5.1-4.8,5.8c-2.7,0.8-5.2-1.8-6.4-5.8H-277.1z"/>
				</defs>
				<clipPath id="SVGID_20_">
					<use xlink:href="#SVGID_19_"  style="overflow:visible;"/>
				</clipPath>
				<rect x="-285.8" y="315" class="st13" width="0.3" height="6.6"/>
			</g>
			<g>
				<defs>
					<path id="SVGID_21_" d="M-277.1,315c-1.6,3.8-2.6,5.1-4.8,5.8c-2.7,0.8-5.2-1.8-6.4-5.8H-277.1z"/>
				</defs>
				<clipPath id="SVGID_22_">
					<use xlink:href="#SVGID_21_"  style="overflow:visible;"/>
				</clipPath>
				<rect x="-285.4" y="315" class="st14" width="0.3" height="6.6"/>
			</g>
			<g>
				<defs>
					<path id="SVGID_23_" d="M-277.1,315c-1.6,3.8-2.6,5.1-4.8,5.8c-2.7,0.8-5.2-1.8-6.4-5.8H-277.1z"/>
				</defs>
				<clipPath id="SVGID_24_">
					<use xlink:href="#SVGID_23_"  style="overflow:visible;"/>
				</clipPath>
				<rect x="-285.1" y="315" class="st15" width="0.3" height="6.6"/>
			</g>
			<g>
				<defs>
					<path id="SVGID_25_" d="M-277.1,315c-1.6,3.8-2.6,5.1-4.8,5.8c-2.7,0.8-5.2-1.8-6.4-5.8H-277.1z"/>
				</defs>
				<clipPath id="SVGID_26_">
					<use xlink:href="#SVGID_25_"  style="overflow:visible;"/>
				</clipPath>
				<rect x="-284.8" y="315" class="st16" width="0.3" height="6.6"/>
			</g>
			<g>
				<defs>
					<path id="SVGID_27_" d="M-277.1,315c-1.6,3.8-2.6,5.1-4.8,5.8c-2.7,0.8-5.2-1.8-6.4-5.8H-277.1z"/>
				</defs>
				<clipPath id="SVGID_28_">
					<use xlink:href="#SVGID_27_"  style="overflow:visible;"/>
				</clipPath>
				<rect x="-284.5" y="315" class="st17" width="0.3" height="6.6"/>
			</g>
			<g>
				<defs>
					<path id="SVGID_29_" d="M-277.1,315c-1.6,3.8-2.6,5.1-4.8,5.8c-2.7,0.8-5.2-1.8-6.4-5.8H-277.1z"/>
				</defs>
				<clipPath id="SVGID_30_">
					<use xlink:href="#SVGID_29_"  style="overflow:visible;"/>
				</clipPath>
				<rect x="-284.2" y="315" class="st18" width="0.3" height="6.6"/>
			</g>
			<g>
				<defs>
					<path id="SVGID_31_" d="M-277.1,315c-1.6,3.8-2.6,5.1-4.8,5.8c-2.7,0.8-5.2-1.8-6.4-5.8H-277.1z"/>
				</defs>
				<clipPath id="SVGID_32_">
					<use xlink:href="#SVGID_31_"  style="overflow:visible;"/>
				</clipPath>
				<rect x="-283.8" y="315" class="st19" width="0.3" height="6.6"/>
			</g>
			<g>
				<defs>
					<path id="SVGID_33_" d="M-277.1,315c-1.6,3.8-2.6,5.1-4.8,5.8c-2.7,0.8-5.2-1.8-6.4-5.8H-277.1z"/>
				</defs>
				<clipPath id="SVGID_34_">
					<use xlink:href="#SVGID_33_"  style="overflow:visible;"/>
				</clipPath>
				<rect x="-283.5" y="315" class="st20" width="0.3" height="6.6"/>
			</g>
			<g>
				<defs>
					<path id="SVGID_35_" d="M-277.1,315c-1.6,3.8-2.6,5.1-4.8,5.8c-2.7,0.8-5.2-1.8-6.4-5.8H-277.1z"/>
				</defs>
				<clipPath id="SVGID_36_">
					<use xlink:href="#SVGID_35_"  style="overflow:visible;"/>
				</clipPath>
				<rect x="-283.2" y="315" class="st21" width="0.3" height="6.6"/>
			</g>
			<g>
				<defs>
					<path id="SVGID_37_" d="M-277.1,315c-1.6,3.8-2.6,5.1-4.8,5.8c-2.7,0.8-5.2-1.8-6.4-5.8H-277.1z"/>
				</defs>
				<clipPath id="SVGID_38_">
					<use xlink:href="#SVGID_37_"  style="overflow:visible;"/>
				</clipPath>
				<rect x="-282.9" y="315" class="st22" width="0.3" height="6.6"/>
			</g>
			<g>
				<defs>
					<path id="SVGID_39_" d="M-277.1,315c-1.6,3.8-2.6,5.1-4.8,5.8c-2.7,0.8-5.2-1.8-6.4-5.8H-277.1z"/>
				</defs>
				<clipPath id="SVGID_40_">
					<use xlink:href="#SVGID_39_"  style="overflow:visible;"/>
				</clipPath>
				<rect x="-282.6" y="315" class="st23" width="0.3" height="6.6"/>
			</g>
			<g>
				<defs>
					<path id="SVGID_41_" d="M-277.1,315c-1.6,3.8-2.6,5.1-4.8,5.8c-2.7,0.8-5.2-1.8-6.4-5.8H-277.1z"/>
				</defs>
				<clipPath id="SVGID_42_">
					<use xlink:href="#SVGID_41_"  style="overflow:visible;"/>
				</clipPath>
				<rect x="-282.2" y="315" class="st24" width="0.3" height="6.6"/>
			</g>
			<g>
				<defs>
					<path id="SVGID_43_" d="M-277.1,315c-1.6,3.8-2.6,5.1-4.8,5.8c-2.7,0.8-5.2-1.8-6.4-5.8H-277.1z"/>
				</defs>
				<clipPath id="SVGID_44_">
					<use xlink:href="#SVGID_43_"  style="overflow:visible;"/>
				</clipPath>
				<rect x="-281.9" y="315" class="st25" width="0.3" height="6.6"/>
			</g>
			<g>
				<defs>
					<path id="SVGID_45_" d="M-277.1,315c-1.6,3.8-2.6,5.1-4.8,5.8c-2.7,0.8-5.2-1.8-6.4-5.8H-277.1z"/>
				</defs>
				<clipPath id="SVGID_46_">
					<use xlink:href="#SVGID_45_"  style="overflow:visible;"/>
				</clipPath>
				<rect x="-281.6" y="315" class="st26" width="0.3" height="6.6"/>
			</g>
			<g>
				<defs>
					<path id="SVGID_47_" d="M-277.1,315c-1.6,3.8-2.6,5.1-4.8,5.8c-2.7,0.8-5.2-1.8-6.4-5.8H-277.1z"/>
				</defs>
				<clipPath id="SVGID_48_">
					<use xlink:href="#SVGID_47_"  style="overflow:visible;"/>
				</clipPath>
				<rect x="-281.3" y="315" class="st27" width="0.3" height="6.6"/>
			</g>
			<g>
				<defs>
					<path id="SVGID_49_" d="M-277.1,315c-1.6,3.8-2.6,5.1-4.8,5.8c-2.7,0.8-5.2-1.8-6.4-5.8H-277.1z"/>
				</defs>
				<clipPath id="SVGID_50_">
					<use xlink:href="#SVGID_49_"  style="overflow:visible;"/>
				</clipPath>
				<rect x="-281" y="315" class="st28" width="0.3" height="6.6"/>
			</g>
			<g>
				<defs>
					<path id="SVGID_51_" d="M-277.1,315c-1.6,3.8-2.6,5.1-4.8,5.8c-2.7,0.8-5.2-1.8-6.4-5.8H-277.1z"/>
				</defs>
				<clipPath id="SVGID_52_">
					<use xlink:href="#SVGID_51_"  style="overflow:visible;"/>
				</clipPath>
				<rect x="-280.6" y="315" class="st29" width="0.3" height="6.6"/>
			</g>
			<g>
				<defs>
					<path id="SVGID_53_" d="M-277.1,315c-1.6,3.8-2.6,5.1-4.8,5.8c-2.7,0.8-5.2-1.8-6.4-5.8H-277.1z"/>
				</defs>
				<clipPath id="SVGID_54_">
					<use xlink:href="#SVGID_53_"  style="overflow:visible;"/>
				</clipPath>
				<rect x="-280.3" y="315" class="st30" width="0.3" height="6.6"/>
			</g>
			<g>
				<defs>
					<path id="SVGID_55_" d="M-277.1,315c-1.6,3.8-2.6,5.1-4.8,5.8c-2.7,0.8-5.2-1.8-6.4-5.8H-277.1z"/>
				</defs>
				<clipPath id="SVGID_56_">
					<use xlink:href="#SVGID_55_"  style="overflow:visible;"/>
				</clipPath>
				<rect x="-280" y="315" class="st31" width="0.3" height="6.6"/>
			</g>
			<g>
				<defs>
					<path id="SVGID_57_" d="M-277.1,315c-1.6,3.8-2.6,5.1-4.8,5.8c-2.7,0.8-5.2-1.8-6.4-5.8H-277.1z"/>
				</defs>
				<clipPath id="SVGID_58_">
					<use xlink:href="#SVGID_57_"  style="overflow:visible;"/>
				</clipPath>
				<rect x="-279.7" y="315" class="st32" width="0.3" height="6.6"/>
			</g>
			<g>
				<defs>
					<path id="SVGID_59_" d="M-277.1,315c-1.6,3.8-2.6,5.1-4.8,5.8c-2.7,0.8-5.2-1.8-6.4-5.8H-277.1z"/>
				</defs>
				<clipPath id="SVGID_60_">
					<use xlink:href="#SVGID_59_"  style="overflow:visible;"/>
				</clipPath>
				<rect x="-279.4" y="315" class="st33" width="0.3" height="6.6"/>
			</g>
			<g>
				<defs>
					<path id="SVGID_61_" d="M-277.1,315c-1.6,3.8-2.6,5.1-4.8,5.8c-2.7,0.8-5.2-1.8-6.4-5.8H-277.1z"/>
				</defs>
				<clipPath id="SVGID_62_">
					<use xlink:href="#SVGID_61_"  style="overflow:visible;"/>
				</clipPath>
				<rect x="-279.1" y="315" class="st34" width="0.3" height="6.6"/>
			</g>
			<g>
				<defs>
					<path id="SVGID_63_" d="M-277.1,315c-1.6,3.8-2.6,5.1-4.8,5.8c-2.7,0.8-5.2-1.8-6.4-5.8H-277.1z"/>
				</defs>
				<clipPath id="SVGID_64_">
					<use xlink:href="#SVGID_63_"  style="overflow:visible;"/>
				</clipPath>
				<rect x="-278.7" y="315" class="st35" width="0.3" height="6.6"/>
			</g>
			<g>
				<defs>
					<path id="SVGID_65_" d="M-277.1,315c-1.6,3.8-2.6,5.1-4.8,5.8c-2.7,0.8-5.2-1.8-6.4-5.8H-277.1z"/>
				</defs>
				<clipPath id="SVGID_66_">
					<use xlink:href="#SVGID_65_"  style="overflow:visible;"/>
				</clipPath>
				<rect x="-278.4" y="315" class="st36" width="0.3" height="6.6"/>
			</g>
			<g>
				<defs>
					<path id="SVGID_67_" d="M-277.1,315c-1.6,3.8-2.6,5.1-4.8,5.8c-2.7,0.8-5.2-1.8-6.4-5.8H-277.1z"/>
				</defs>
				<clipPath id="SVGID_68_">
					<use xlink:href="#SVGID_67_"  style="overflow:visible;"/>
				</clipPath>
				<rect x="-278.1" y="315" class="st37" width="0.3" height="6.6"/>
			</g>
			<g>
				<defs>
					<path id="SVGID_69_" d="M-277.1,315c-1.6,3.8-2.6,5.1-4.8,5.8c-2.7,0.8-5.2-1.8-6.4-5.8H-277.1z"/>
				</defs>
				<clipPath id="SVGID_70_">
					<use xlink:href="#SVGID_69_"  style="overflow:visible;"/>
				</clipPath>
				<rect x="-277.8" y="315" class="st38" width="0.3" height="6.6"/>
			</g>
			<g>
				<defs>
					<path id="SVGID_71_" d="M-277.1,315c-1.6,3.8-2.6,5.1-4.8,5.8c-2.7,0.8-5.2-1.8-6.4-5.8H-277.1z"/>
				</defs>
				<clipPath id="SVGID_72_">
					<use xlink:href="#SVGID_71_"  style="overflow:visible;"/>
				</clipPath>
				<rect x="-277.5" y="315" class="st39" width="0.3" height="6.6"/>
			</g>
			<g>
				<defs>
					<path id="SVGID_73_" d="M-277.1,315c-1.6,3.8-2.6,5.1-4.8,5.8c-2.7,0.8-5.2-1.8-6.4-5.8H-277.1z"/>
				</defs>
				<clipPath id="SVGID_74_">
					<use xlink:href="#SVGID_73_"  style="overflow:visible;"/>
				</clipPath>
				<rect x="-277.1" y="315" class="st40" width="0" height="6.6"/>
			</g>
		</g>
	</g>
</g>
<g id="rounded_x5F_hinges_x5F_notepad_1_" class="st0">
	<g id="Base_27_" class="st1">
		<path class="st2" d="M-119,115.5h-171.5c-3.3,0-5.9,2.6-5.9,5.8v226.9c0,3.2,2.6,5.8,5.9,5.8H-119c3.3,0,5.9-2.6,5.9-5.8V121.3
			C-113.1,118.1-115.7,115.5-119,115.5z M-121.8,345.3h-165.8V124.2h165.8C-121.8,124.2-121.8,345.3-121.8,345.3z"/>
	</g>
	<g id="lines_5_" class="st1">
		<g id="lines_2_">
			<path class="st2" d="M-287.6,175.7v3h165.8v-3C-121.8,175.7-287.6,175.7-287.6,175.7z M-287.6,193.8h165.8v-3h-165.8V193.8z
				 M-287.6,209h165.8v-3h-165.8V209z M-287.6,224.1h165.8v-3h-165.8V224.1z M-287.6,239.3h165.8v-3h-165.8V239.3z M-287.6,254.4
				h165.8v-3h-165.8V254.4z M-287.6,269.6h165.8v-3h-165.8V269.6z M-287.6,284.7h165.8v-3h-165.8V284.7z M-287.6,299.8h165.8v-3
				h-165.8V299.8z M-287.6,315h165.8v-3h-165.8V315z M-287.6,330.1h165.8v-3h-165.8V330.1z"/>
		</g>
		<g id="line">
			<rect x="-255.6" y="153.3" class="st2" width="2.9" height="186.2"/>
		</g>
	</g>
	<g id="holes_1_" class="st1">
		<g id="hinges_2_">
			<g id="hinges_1_">
				<path class="st2" d="M-145.1,115.5c0,0,0.7-17.6-11.6-17.5c-11.5,0.1-11.6,14.6-11.6,17.5c0,4.6,1.1,13,4.4,18.4
					c-0.9,1.4-1.5,3.1-1.5,4.9c0,4.8,3.9,8.7,8.7,8.7s8.7-3.9,8.7-8.7s-3.9-8.7-8.7-8.7c-0.9,0-1.8,0.2-2.6,0.4
					c-0.1-0.2-0.2-0.3-0.3-0.4c-2.5-4.2-2.9-10.3-2.9-14.5c0-3.4,0.8-11.8,5.8-11.6c7.9,0.2,5.8,11.6,5.8,11.6L-145.1,115.5
					L-145.1,115.5z M-188.7,98c-11.5,0.1-11.6,14.6-11.6,17.5c0,4.6,1.1,13,4.4,18.4c-0.9,1.4-1.5,3.1-1.5,4.9
					c0,4.8,3.9,8.7,8.7,8.7s8.7-3.9,8.7-8.7s-3.9-8.7-8.7-8.7c-0.9,0-1.8,0.2-2.6,0.4c-0.1-0.2-0.2-0.3-0.3-0.4
					c-2.5-4.2-2.9-10.3-2.9-14.5c0-3.4,0.8-11.8,5.8-11.6c7.9,0.2,5.8,11.6,5.8,11.6h5.8C-177.1,115.5-176.4,97.9-188.7,98z
					 M-220.7,98c-11.5,0.1-11.7,14.6-11.7,17.5c0,4.6,1.1,13,4.4,18.4c-0.9,1.4-1.5,3.1-1.5,4.9c0,4.8,3.9,8.7,8.7,8.7
					s8.7-3.9,8.7-8.7s-3.9-8.7-8.7-8.7c-0.9,0-1.8,0.2-2.6,0.4c-0.1-0.2-0.2-0.3-0.3-0.4c-2.5-4.2-2.9-10.3-2.9-14.5
					c0-3.4,0.8-11.8,5.8-11.6c7.9,0.2,5.8,11.6,5.8,11.6h5.8C-209.1,115.5-208.4,97.9-220.7,98z M-252.7,98
					c-11.5,0.1-11.6,14.6-11.6,17.5c0,4.6,1.1,13,4.4,18.4c-0.9,1.4-1.5,3.1-1.5,4.9c0,4.8,3.9,8.7,8.7,8.7s8.7-3.9,8.7-8.7
					s-3.9-8.7-8.7-8.7c-0.9,0-1.8,0.2-2.6,0.4c-0.1-0.2-0.2-0.3-0.3-0.4c-2.4-4.2-2.9-10.3-2.9-14.5c0-3.4,0.8-11.8,5.8-11.6
					c7.9,0.2,5.8,11.6,5.8,11.6h5.8C-241.1,115.5-240.4,97.9-252.7,98z"/>
			</g>
		</g>
	</g>
	<g id="pencil_3_" class="st1">
		<g id="Base_3_">
			<g>
				<polygon class="st2" points="-188.8,295.8 -188.3,294.9 -188.7,295.8 				"/>
			</g>
			<g>
				<polygon class="st2" points="-63.6,199.8 -156.7,290 -178.6,294 -184.9,287.4 -176.7,269.2 -83.9,180 				"/>
			</g>
		</g>
		<g id="rubber">
			<g>
				<path class="st2" d="M-49.1,167.8c-7.9-7.6-18-4-18-4l-10.4,10l19.7,20.2l8.7-8.7C-49.1,185.3-41.3,175.3-49.1,167.8z"/>
			</g>
		</g>
		<g id="tip">
			<polygon class="st2" points="-179.9,295 -190,296.8 -189.7,296 -186.3,288.4 			"/>
		</g>
	</g>
</g>
<g id="white_x5F_notepad_1_">
	<g id="Base_21_">
		<g>
			<path class="st2" d="M-109,285.1h-87.1c-1.4,0-2.6-1.2-2.6-2.6V167.2c0-1.4,1.2-2.6,2.6-2.6h87.1c1.4,0,2.6,1.2,2.6,2.6v115.3
				C-106.4,283.9-107.5,285.1-109,285.1z M-196.1,167.1C-196.2,167.1-196.2,167.1-196.1,167.1l-0.1,115.4c0,0.1,0,0.1,0.1,0.1h87.1
				c0,0,0.1,0,0.1-0.1V167.2c0-0.1,0-0.1-0.1-0.1H-196.1z"/>
		</g>
	</g>
	<path class="st2" d="M-188.1,177.9v1.3h72.4v-1.3C-115.7,177.9-188.1,177.9-188.1,177.9z M-188.1,184.6h72.4v-1.3h-72.4V184.6z
		 M-188.1,195.3h72.4V194h-72.4V195.3z M-188.1,200.7h72.4v-1.3h-72.4V200.7z M-188.1,210.1h72.4v-1.3h-72.4V210.1z M-188.1,215.4
		h72.4v-1.3h-72.4V215.4z M-188.1,224.8h72.4v-1.3h-72.4V224.8z M-188.1,230.2h72.4v-1.3h-72.4V230.2z M-188.1,239.6h72.4v-1.3
		h-72.4V239.6z M-188.1,244.9h72.4v-1.3h-72.4V244.9z M-188.1,254.3h72.4V253h-72.4V254.3z M-188.1,259.7h72.4v-1.3h-72.4V259.7z
		 M-188.1,269.1h72.4v-1.3h-72.4V269.1z M-188.1,274.4h72.4v-1.3h-72.4V274.4z"/>
	<path id="ring_1_" class="st2" d="M-192.7,177.7c0.6,0,1.2-0.5,1.2-1.1c0-0.6-0.5-1.1-1.2-1.1c-0.6,0-1.1,0.5-1.1,1.1
		C-193.9,177.2-193.4,177.7-192.7,177.7z M-192.7,179.2c-0.6,0-1.1,0.5-1.1,1.1c0,0.6,0.5,1.1,1.1,1.1c0.6,0,1.2-0.5,1.2-1.1
		C-191.6,179.7-192.1,179.2-192.7,179.2z M-193.1,176.3v-0.4h-8.4v1.5h8.4V176.3z M-201.5,179.5v1.5h8.4v-0.7v-0.7h-8.4V179.5z
		 M-192.7,190.2c-0.6,0-1.1,0.5-1.1,1.1c0,0.6,0.5,1.1,1.1,1.1c0.6,0,1.2-0.5,1.2-1.1C-191.5,190.7-192.1,190.2-192.7,190.2z
		 M-192.7,193.9c-0.6,0-1.1,0.5-1.1,1.1s0.5,1.1,1.1,1.1c0.6,0,1.2-0.5,1.2-1.1C-191.6,194.4-192.1,193.9-192.7,193.9z
		 M-201.5,190.6v1.5h8.4V191v-0.4H-201.5z M-201.5,194.2v1.5h8.4v-0.4v-1.1H-201.5z M-192.7,205.6c-0.6,0-1.1,0.5-1.1,1.1
		s0.5,1.1,1.1,1.1c0.6,0,1.2-0.5,1.2-1.1C-191.6,206.1-192.1,205.6-192.7,205.6z M-192.7,209.3c-0.6,0-1.1,0.5-1.1,1.1
		c0,0.6,0.5,1.1,1.1,1.1c0.6,0,1.2-0.5,1.2-1.1C-191.6,209.8-192.1,209.3-192.7,209.3z M-201.5,206v1.5h8.4v-1.1V206H-201.5z
		 M-201.5,209.6v1.5h8.4v-0.4v-1.1H-201.5z M-192.7,221c-0.6,0-1.1,0.5-1.1,1.1c0,0.6,0.5,1.1,1.1,1.1c0.6,0,1.2-0.5,1.2-1.1
		C-191.6,221.5-192.1,221-192.7,221z M-192.7,224.7c-0.6,0-1.1,0.5-1.1,1.1c0,0.6,0.5,1.1,1.1,1.1c0.6,0,1.2-0.5,1.2-1.1
		C-191.6,225.2-192.1,224.7-192.7,224.7z M-201.5,221.5v1.5h8.4v-1.1v-0.4H-201.5z M-201.5,225.1v1.5h8.4v-0.4v-1.1H-201.5z
		 M-192.7,238.6c-0.6,0-1.1,0.5-1.1,1.1s0.5,1.1,1.1,1.1c0.6,0,1.2-0.5,1.2-1.1C-191.6,239.1-192.1,238.6-192.7,238.6z
		 M-192.7,242.3c-0.6,0-1.1,0.5-1.1,1.1c0,0.6,0.5,1.1,1.1,1.1c0.6,0,1.2-0.5,1.2-1.1C-191.6,242.8-192.1,242.3-192.7,242.3z
		 M-201.5,239.1v1.5h8.4v-1.1v-0.4H-201.5z M-201.5,242.7v1.5h8.4v-0.4v-1.1H-201.5z M-192.7,254.1c-0.6,0-1.1,0.5-1.1,1.1
		s0.5,1.1,1.1,1.1c0.6,0,1.2-0.5,1.2-1.1C-191.6,254.5-192.1,254.1-192.7,254.1z M-192.7,257.7c-0.6,0-1.1,0.5-1.1,1.1
		c0,0.6,0.5,1.1,1.1,1.1c0.6,0,1.2-0.5,1.2-1.1C-191.6,258.2-192.1,257.7-192.7,257.7z M-201.5,254.4v1.5h8.4v-1.1v-0.4H-201.5z
		 M-201.5,258.1v1.5h8.4v-0.4v-1.1H-201.5z M-192.7,270.2c-0.6,0-1.1,0.5-1.1,1.1c0,0.6,0.5,1.1,1.1,1.1c0.6,0,1.2-0.5,1.2-1.1
		C-191.6,270.7-192.1,270.2-192.7,270.2z M-192.7,273.9c-0.6,0-1.1,0.5-1.1,1.1s0.5,1.1,1.1,1.1c0.6,0,1.2-0.5,1.2-1.1
		C-191.6,274.4-192.1,273.9-192.7,273.9z M-201.5,270.6v1.5h8.4V271v-0.4H-201.5z M-201.5,274.3v1.5h8.4v-0.4v-1.1H-201.5z"/>
	<g id="pencil_2_">
		<g id="Base_5_">
			<polygon class="st2" points="-221,191.3 -221,268.6 -221.1,269.1 -234.2,269.1 -234.4,268.6 -234.4,191.3 			"/>
		</g>
		<g id="bottom">
			<polygon class="st41" points="-221.1,269.1 -225.6,279.8 -230,279.8 -234.2,269.1 			"/>
		</g>
		<g id="back_1_">
			<g>
				<path class="st2" d="M-227.7,172.5c-6.6,0-6.7,4.8-6.7,4.8v8.6h13.4v-8.6C-220.9,177.3-221.2,172.5-227.7,172.5z"/>
			</g>
		</g>
		<g id="tip_1_">
			<polygon class="st42" points="-225.6,279.8 -227.8,285 -230,279.8 			"/>
		</g>
		<g id="back_2_">
			<g>
				<rect x="-234.4" y="185.9" class="st41" width="13.4" height="5.4"/>
			</g>
		</g>
	</g>
</g>
<g id="lightbrown_x5F_notepad_1_" class="st0">
	<g id="Base_6_" class="st1">
		<path class="st2" d="M-50.9,128.4h-240.2c-4.4,0-7.9,3.5-7.9,7.9v179.5c0,4.4,3.5,7.9,7.9,7.9h240.2c4.4,0,7.9-3.5,7.9-7.9V136.3
			C-43,131.9-46.5,128.4-50.9,128.4z M-50.9,310.5c0,2.9-2.3,5.2-5.3,5.2h-229.6c-2.9,0-5.3-2.3-5.3-5.2v-169c0-2.9,2.4-5.2,5.3-5.2
			h229.6c2.9,0,5.3,2.3,5.3,5.2V310.5z"/>
	</g>
	<g id="line_7_" class="st1">
		<g id="line_2_">
			<g>
				<path class="st2" d="M-254.1,154.7h-26.4v26.4h26.4V154.7z M-256.8,178.5h-21.1v-21.1h21.1
					C-256.8,157.4-256.8,178.5-256.8,178.5z M-291.1,284.1h240.2v-2.6h-240.2V284.1z M-291.1,299.9h240.2v-2.6h-240.2V299.9z
					 M-135.4,154.7h-26.4v26.4h26.4V154.7z M-138,178.5h-21.1v-21.1h21.1V178.5z M-291.1,186.4v2.6h240.2v-2.6H-291.1z
					 M-291.1,204.9h240.2v-2.6h-240.2V204.9z M-291.1,268.2h240.2v-2.6h-240.2V268.2z M-291.1,220.7h240.2v-2.6h-240.2V220.7z
					 M-291.1,236.6h240.2V234h-240.2V236.6z M-291.1,252.4h240.2v-2.6h-240.2V252.4z"/>
			</g>
		</g>
		<g id="ticker_4_">
			<g>
				<polygon class="st2" points="-267.3,170.6 -272.6,165.3 -275.2,167.9 -267.3,175.9 -251.5,157.4 				"/>
			</g>
		</g>
	</g>
	<g id="binder" class="st1">
		<g>
			<rect x="-172.3" y="136.3" class="st2" width="2.6" height="179.5"/>
		</g>
	</g>
	<g id="ribbon_2_" class="st1">
		<g id="ribbon_1_">
			<g>
				<rect x="-69.4" y="136.3" class="st2" width="7.9" height="179.5"/>
			</g>
		</g>
	</g>
</g>
<g id="black_x5F_notepad_1_" class="st0">
	<g id="board" class="st1">
		<path class="st2" d="M-132.7,125c-1,0.5-2.1,0.7-3.2,0.7s-2.2-0.3-3.2-0.7H-132.7z"/>
		<path class="st2" d="M-51.2,125h-22.4v-3.9c0-2.5-2.1-4.6-4.7-4.6h-40c0,0-1-18.4-16.4-18.5c-18-0.1-18.8,18.5-18.8,18.5h-35.3
			c-2.6,0-4.7,2.1-4.7,4.6v3.9H-218c-3.5,0-6.3,3-6.3,6.7v210.4c0,3.7,2.8,6.7,6.3,6.7h166.8c3.5,0,6.3-3,6.3-6.7V131.7
			C-44.8,128-47.7,125-51.2,125z M-135.9,107.3c4.6,0,8.2,4.1,8.2,9.2c0,3.9-2.1,7.1-5,8.5c-1,0.5-2.1,0.7-3.2,0.7
			c-1.1,0-2.2-0.3-3.2-0.7c-3-1.4-5-4.7-5-8.5C-144.1,111.4-140.4,107.3-135.9,107.3z M-63,328.3c0,1.3-1,2.3-2.3,2.3h-138.4
			c-1.3,0-2.3-1-2.3-2.3V143c0-1.3,1-2.3,2.3-2.3h10.3v1.3c0,2.5,2.1,4.6,4.7,4.6h110.5c2.6,0,4.7-2.1,4.7-4.6v-1.3h8.2
			c1.3,0,2.3,1,2.3,2.3V328.3z"/>
	</g>
	<g id="lines_4_" class="st1">
		<path class="st2" d="M-193.5,177.5v6.9h115.2v-6.9H-193.5z M-193.5,209.9h115.2V203h-115.2V209.9z M-193.5,233.1h115.2v-6.9
			h-115.2V233.1z M-193.5,258.5h115.2v-6.9h-115.2V258.5z M-193.5,284h115.2v-7h-115.2V284z"/>
	</g>
	<g id="pen_4_" class="st1">
		<g id="Base_9_">
			<g>
				<path class="st2" d="M-284.2,156.3V328h20.8V156.3H-284.2z M-290.7,166.6c-3.6,0-6.5,2.9-6.5,6.5v52c0,3.6,2.9,6.5,6.5,6.5
					c3.6,0,6.5-2.9,6.5-6.5v-52C-284.2,169.6-287.1,166.6-290.7,166.6z"/>
			</g>
		</g>
		<g id="button_1_">
			<g>
				<path class="st2" d="M-273.7,140.7c-3,0-7.8,4.8-7.8,7.8v8.7h15.7v-8.6C-265.8,145.6-270.7,140.7-273.7,140.7z"/>
			</g>
		</g>
		<g id="pointer_3_">
			<g>
				<polygon class="st2" points="-283.8,327.9 -273.7,354 -263.3,328 				"/>
			</g>
		</g>
	</g>
</g>
<g id="orange_x5F_notepad_1_" class="st0">
	<g id="Base_2_" class="st1">
		<path class="st2" d="M-55.3,103.3h-172.9c-3.4,0-6.2,2.8-6.2,6.3l-2.6,232.9c0,3.5,2.8,6.3,6.2,6.3h163.5c0,0,0-77.3,0-112.3
			c0-3.4,18.1-14.4,18.2-16.4c0.1-2.2,0.1-3.4,0.1-3.4V109.5C-49,106.1-51.8,103.3-55.3,103.3z M-75.2,325.8c0,1.1-0.9,2.1-2.1,2.1
			h-142c-1.1,0-2.1-0.9-2.1-2.1V123.6c0-1.2,0.9-2.1,2.1-2.1h142.1c1.1,0,2.1,0.9,2.1,2.1v202.2H-75.2z"/>
	</g>
	<g id="contactlist_5_" class="st1">
		<polygon class="st2" points="-62.1,239.1 -62.1,270.6 -49,260.1 -49,228.6 		"/>
	</g>
	<g id="contactlist_4_" class="st1">
		<polygon class="st2" points="-62.1,276.9 -62.1,308.4 -49,297.9 -49,266.4 		"/>
	</g>
	<g id="contactlist_3_" class="st1">
		<polygon class="st2" points="-62.1,314.7 -62.1,346.1 -49,335.6 -49,304.2 		"/>
	</g>
	<g id="rings_2_" class="st1">
		<g id="rings_1_">
			<path class="st43" d="M-210.2,171.4c-2.8,0-5.1,1.8-5.9,4.4h-21.7c-2.5,0-4.5,1.4-4.5,3.1c0,1.7,2,3.1,4.5,3.1h23.1
				c1.1,1.2,2.7,1.9,4.5,1.9c3.5,0,6.3-2.8,6.3-6.3C-203.9,174.2-206.7,171.4-210.2,171.4z M-210.2,194.4c-2.8,0-5.1,1.8-5.9,4.3
				h-21.7c-2.5,0-4.5,1.4-4.5,3.1s2,3.1,4.5,3.1h23.1c1.1,1.2,2.8,2,4.6,2c3.5,0,6.3-2.8,6.3-6.3
				C-203.9,197.2-206.7,194.4-210.2,194.4z M-210.2,217.4c-2.7,0-5,1.8-5.9,4.2h-21.7c-2.5,0-4.5,1.4-4.5,3.1s2,3.1,4.5,3.1h23
				c1.1,1.3,2.8,2.1,4.7,2.1c3.5,0,6.3-2.8,6.3-6.3C-203.9,220.2-206.7,217.4-210.2,217.4z M-210.2,240.4c-2.7,0-5,1.7-5.9,4.1
				h-21.7c-2.5,0-4.5,1.4-4.5,3.1c0,1.7,2,3.1,4.5,3.1h22.9c1.1,1.3,2.8,2.2,4.7,2.2c3.5,0,6.3-2.8,6.3-6.3
				C-203.9,243.2-206.7,240.4-210.2,240.4z M-210.2,263.3c-2.7,0-4.9,1.7-5.8,4h-21.8c-2.5,0-4.5,1.4-4.5,3.1c0,1.7,2,3.1,4.5,3.1
				h22.8c1.1,1.4,2.9,2.3,4.8,2.3c3.5,0,6.3-2.8,6.3-6.3C-203.9,266.1-206.7,263.3-210.2,263.3z M-210.2,286.3
				c-2.6,0-4.9,1.6-5.8,3.9h-21.8c-2.5,0-4.5,1.4-4.5,3.1s2,3.1,4.5,3.1h22.8c1.1,1.4,2.9,2.4,4.9,2.4c3.5,0,6.3-2.8,6.3-6.3
				C-203.9,289.1-206.7,286.3-210.2,286.3z M-237.8,159.1h23.2c1.1,1.1,2.7,1.9,4.4,1.9c3.5,0,6.3-2.8,6.3-6.3s-2.8-6.3-6.3-6.3
				c-2.8,0-5.2,1.9-6,4.5h-21.6c-2.5,0-4.5,1.4-4.5,3.1C-242.4,157.7-240.3,159.1-237.8,159.1z"/>
		</g>
	</g>
	<g id="line_6_" class="st1">
		<g id="line_3_">
			<path class="st2" d="M-192.7,168.5v7.8h99.2v-7.8H-192.7z M-192.7,197.3h99.2v-7.8h-99.2V197.3z M-192.7,218.2h99.2v-7.8h-99.2
				V218.2z M-192.7,239.1h99.2v-7.8h-99.2V239.1z M-192.7,259.9h99.2v-7.8h-99.2V259.9z M-192.7,280.9h99.2V273h-99.2V280.9z"/>
		</g>
	</g>
	<g id="pen_3_" class="st1">
		<g id="Base_4_">
			<rect x="-293" y="145" class="st2" width="20.9" height="172.4"/>
		</g>
		<g id="rubber_1_">
			<path class="st2" d="M-282.6,116.3c-9.3,0.3-10.4,12.6-10.4,15.6v5.2h20.9l0.1-5.1C-272,129-272.6,115.9-282.6,116.3z"/>
		</g>
		<g id="ruuber_x5F_graper_1_">
			<rect x="-293" y="134.5" class="st41" width="20.9" height="15.7"/>
		</g>
		<g id="pointer_1_">
			<polygon class="st41" points="-272.1,317.4 -278.8,335.7 -286.3,335.7 -293,317.4 			"/>
		</g>
		<g id="point_1_">
			<polygon class="st44" points="-278.8,335.7 -282.6,346.1 -286.3,335.7 			"/>
		</g>
	</g>
</g>
</svg>
